<mxfile host="app.diagrams.net" modified="2022-07-18T18:25:02.254Z" agent="5.0 (Windows NT 10.0; Win64; x64) AppleWebKit/537.36 (KHTML, like Gecko) Chrome/103.0.0.0 Safari/537.36" etag="5No7xwUJpjt4wpblPmwe" version="20.0.4" type="github">
  <diagram id="X2fJKKt7aarqbtWtg0Cp" name="Page-1">
    <mxGraphModel dx="868" dy="450" grid="1" gridSize="10" guides="1" tooltips="1" connect="1" arrows="1" fold="1" page="1" pageScale="1" pageWidth="850" pageHeight="1100" math="0" shadow="0">
      <root>
        <mxCell id="0" />
        <mxCell id="1" parent="0" />
        <mxCell id="hKdDYJP4mx2-etjvpNGC-3" value="" style="edgeStyle=orthogonalEdgeStyle;rounded=0;orthogonalLoop=1;jettySize=auto;html=1;" parent="1" source="hKdDYJP4mx2-etjvpNGC-1" target="hKdDYJP4mx2-etjvpNGC-2" edge="1">
          <mxGeometry relative="1" as="geometry" />
        </mxCell>
        <mxCell id="hKdDYJP4mx2-etjvpNGC-1" value="limits-service" style="rounded=1;whiteSpace=wrap;html=1;" parent="1" vertex="1">
          <mxGeometry x="630" y="90" width="120" height="60" as="geometry" />
        </mxCell>
        <mxCell id="hKdDYJP4mx2-etjvpNGC-5" value="" style="edgeStyle=orthogonalEdgeStyle;rounded=0;orthogonalLoop=1;jettySize=auto;html=1;" parent="1" source="hKdDYJP4mx2-etjvpNGC-2" target="hKdDYJP4mx2-etjvpNGC-4" edge="1">
          <mxGeometry relative="1" as="geometry" />
        </mxCell>
        <mxCell id="hKdDYJP4mx2-etjvpNGC-2" value="spring cloud config server" style="whiteSpace=wrap;html=1;rounded=1;" parent="1" vertex="1">
          <mxGeometry x="630" y="190" width="120" height="60" as="geometry" />
        </mxCell>
        <mxCell id="hKdDYJP4mx2-etjvpNGC-4" value="Git repo" style="whiteSpace=wrap;html=1;rounded=1;" parent="1" vertex="1">
          <mxGeometry x="630" y="270" width="120" height="60" as="geometry" />
        </mxCell>
        <mxCell id="hKdDYJP4mx2-etjvpNGC-13" value="" style="edgeStyle=orthogonalEdgeStyle;rounded=0;orthogonalLoop=1;jettySize=auto;html=1;" parent="1" source="hKdDYJP4mx2-etjvpNGC-6" target="hKdDYJP4mx2-etjvpNGC-12" edge="1">
          <mxGeometry relative="1" as="geometry" />
        </mxCell>
        <mxCell id="hKdDYJP4mx2-etjvpNGC-6" value="currency calc service" style="rounded=0;whiteSpace=wrap;html=1;" parent="1" vertex="1">
          <mxGeometry x="10" y="190" width="120" height="60" as="geometry" />
        </mxCell>
        <mxCell id="hKdDYJP4mx2-etjvpNGC-9" value="" style="edgeStyle=orthogonalEdgeStyle;rounded=0;orthogonalLoop=1;jettySize=auto;html=1;" parent="1" target="hKdDYJP4mx2-etjvpNGC-1" edge="1">
          <mxGeometry relative="1" as="geometry">
            <mxPoint x="470" y="120" as="sourcePoint" />
          </mxGeometry>
        </mxCell>
        <mxCell id="hKdDYJP4mx2-etjvpNGC-7" value="currency exchange service" style="whiteSpace=wrap;html=1;rounded=0;" parent="1" vertex="1">
          <mxGeometry x="305" y="190" width="120" height="60" as="geometry" />
        </mxCell>
        <mxCell id="hKdDYJP4mx2-etjvpNGC-10" value="currency exchange service" style="whiteSpace=wrap;html=1;rounded=0;" parent="1" vertex="1">
          <mxGeometry x="305" y="280" width="120" height="60" as="geometry" />
        </mxCell>
        <mxCell id="hKdDYJP4mx2-etjvpNGC-11" value="currency exchange service" style="whiteSpace=wrap;html=1;rounded=0;" parent="1" vertex="1">
          <mxGeometry x="305" y="110" width="120" height="60" as="geometry" />
        </mxCell>
        <mxCell id="hKdDYJP4mx2-etjvpNGC-15" value="" style="edgeStyle=orthogonalEdgeStyle;rounded=0;orthogonalLoop=1;jettySize=auto;html=1;" parent="1" source="hKdDYJP4mx2-etjvpNGC-12" target="hKdDYJP4mx2-etjvpNGC-7" edge="1">
          <mxGeometry relative="1" as="geometry" />
        </mxCell>
        <mxCell id="hKdDYJP4mx2-etjvpNGC-19" value="" style="edgeStyle=orthogonalEdgeStyle;rounded=0;orthogonalLoop=1;jettySize=auto;html=1;" parent="1" source="hKdDYJP4mx2-etjvpNGC-12" edge="1">
          <mxGeometry relative="1" as="geometry">
            <mxPoint x="300" y="140" as="targetPoint" />
            <Array as="points">
              <mxPoint x="200" y="140" />
            </Array>
          </mxGeometry>
        </mxCell>
        <mxCell id="hKdDYJP4mx2-etjvpNGC-20" style="edgeStyle=orthogonalEdgeStyle;rounded=0;orthogonalLoop=1;jettySize=auto;html=1;" parent="1" source="hKdDYJP4mx2-etjvpNGC-12" edge="1">
          <mxGeometry relative="1" as="geometry">
            <mxPoint x="300" y="310" as="targetPoint" />
            <Array as="points">
              <mxPoint x="200" y="310" />
            </Array>
          </mxGeometry>
        </mxCell>
        <mxCell id="hKdDYJP4mx2-etjvpNGC-22" value="" style="edgeStyle=orthogonalEdgeStyle;rounded=0;orthogonalLoop=1;jettySize=auto;html=1;" parent="1" source="hKdDYJP4mx2-etjvpNGC-12" target="hKdDYJP4mx2-etjvpNGC-21" edge="1">
          <mxGeometry relative="1" as="geometry">
            <Array as="points">
              <mxPoint x="180" y="120" />
            </Array>
          </mxGeometry>
        </mxCell>
        <mxCell id="hKdDYJP4mx2-etjvpNGC-12" value="Ribbon" style="whiteSpace=wrap;html=1;rounded=0;" parent="1" vertex="1">
          <mxGeometry x="160" y="200" width="80" height="40" as="geometry" />
        </mxCell>
        <mxCell id="hKdDYJP4mx2-etjvpNGC-21" value="Naming server" style="whiteSpace=wrap;html=1;rounded=0;" parent="1" vertex="1">
          <mxGeometry x="50" y="90" width="120" height="60" as="geometry" />
        </mxCell>
        <mxCell id="zPldYSE9pNG7JLtZt6pi-3" value="" style="edgeStyle=orthogonalEdgeStyle;rounded=0;orthogonalLoop=1;jettySize=auto;html=1;" edge="1" parent="1" source="zPldYSE9pNG7JLtZt6pi-1" target="zPldYSE9pNG7JLtZt6pi-2">
          <mxGeometry relative="1" as="geometry" />
        </mxCell>
        <mxCell id="zPldYSE9pNG7JLtZt6pi-7" style="edgeStyle=orthogonalEdgeStyle;rounded=0;orthogonalLoop=1;jettySize=auto;html=1;exitX=0.75;exitY=1;exitDx=0;exitDy=0;entryX=0;entryY=0.75;entryDx=0;entryDy=0;" edge="1" parent="1" source="zPldYSE9pNG7JLtZt6pi-1" target="zPldYSE9pNG7JLtZt6pi-6">
          <mxGeometry relative="1" as="geometry" />
        </mxCell>
        <mxCell id="zPldYSE9pNG7JLtZt6pi-1" value="calculation service" style="rounded=0;whiteSpace=wrap;html=1;" vertex="1" parent="1">
          <mxGeometry x="160" y="480" width="120" height="60" as="geometry" />
        </mxCell>
        <mxCell id="zPldYSE9pNG7JLtZt6pi-5" value="" style="edgeStyle=orthogonalEdgeStyle;rounded=0;orthogonalLoop=1;jettySize=auto;html=1;" edge="1" parent="1" source="zPldYSE9pNG7JLtZt6pi-2" target="zPldYSE9pNG7JLtZt6pi-4">
          <mxGeometry relative="1" as="geometry" />
        </mxCell>
        <mxCell id="zPldYSE9pNG7JLtZt6pi-8" style="edgeStyle=orthogonalEdgeStyle;rounded=0;orthogonalLoop=1;jettySize=auto;html=1;entryX=0.442;entryY=0.017;entryDx=0;entryDy=0;entryPerimeter=0;" edge="1" parent="1" source="zPldYSE9pNG7JLtZt6pi-2" target="zPldYSE9pNG7JLtZt6pi-6">
          <mxGeometry relative="1" as="geometry" />
        </mxCell>
        <mxCell id="zPldYSE9pNG7JLtZt6pi-2" value="exchange service" style="whiteSpace=wrap;html=1;rounded=0;" vertex="1" parent="1">
          <mxGeometry x="365" y="480" width="120" height="60" as="geometry" />
        </mxCell>
        <mxCell id="zPldYSE9pNG7JLtZt6pi-9" style="edgeStyle=orthogonalEdgeStyle;rounded=0;orthogonalLoop=1;jettySize=auto;html=1;entryX=1;entryY=0.25;entryDx=0;entryDy=0;" edge="1" parent="1" source="zPldYSE9pNG7JLtZt6pi-4" target="zPldYSE9pNG7JLtZt6pi-6">
          <mxGeometry relative="1" as="geometry">
            <mxPoint x="620" y="650" as="targetPoint" />
            <Array as="points">
              <mxPoint x="630" y="650" />
              <mxPoint x="490" y="650" />
            </Array>
          </mxGeometry>
        </mxCell>
        <mxCell id="zPldYSE9pNG7JLtZt6pi-4" value="limits service" style="whiteSpace=wrap;html=1;rounded=0;" vertex="1" parent="1">
          <mxGeometry x="560" y="480" width="120" height="60" as="geometry" />
        </mxCell>
        <mxCell id="zPldYSE9pNG7JLtZt6pi-11" value="" style="edgeStyle=orthogonalEdgeStyle;rounded=0;orthogonalLoop=1;jettySize=auto;html=1;" edge="1" parent="1" source="zPldYSE9pNG7JLtZt6pi-6" target="zPldYSE9pNG7JLtZt6pi-10">
          <mxGeometry relative="1" as="geometry" />
        </mxCell>
        <mxCell id="zPldYSE9pNG7JLtZt6pi-6" value="Rabbit MQ" style="rounded=1;whiteSpace=wrap;html=1;" vertex="1" parent="1">
          <mxGeometry x="370" y="620" width="120" height="60" as="geometry" />
        </mxCell>
        <mxCell id="zPldYSE9pNG7JLtZt6pi-10" value="Database" style="shape=cylinder3;whiteSpace=wrap;html=1;boundedLbl=1;backgroundOutline=1;size=15;" vertex="1" parent="1">
          <mxGeometry x="400" y="760" width="60" height="80" as="geometry" />
        </mxCell>
      </root>
    </mxGraphModel>
  </diagram>
</mxfile>
